<?xml version="1.0" encoding="UTF-8"?>
<svg width="99px" height="99px" viewBox="0 0 99 99" version="1.1" xmlns="http://www.w3.org/2000/svg" xmlns:xlink="http://www.w3.org/1999/xlink">
    <!-- Generator: Sketch 59.1 (86144) - https://sketch.com -->
    <title>99 x 99</title>
    <desc>Created with Sketch.</desc>
    <g id="99-x-99" stroke="none" stroke-width="1" fill="none" fill-rule="evenodd">
        <g id="Group-6" transform="translate(15.000000, 15.000000)">
            <polygon id="Fill-1" fill="#47C3D3" points="23.1237973 0.0302849317 23.1237973 23.1016473 0.000859588764 23.1016473 0.000859588764 45.7303216 23.1237973 45.7303216 23.1237973 68.6383621 45.640725 68.6383621 45.640725 45.7303216 68.8453237 45.7303216 68.8453237 23.1016473 45.640725 23.1016473 45.640725 0.0302849317"></polygon>
            <polygon id="Fill-2" fill="#ED1B2E" points="0 16.6512933 16.68032 16.6512933 16.68032 0.0311445204 0 0.0311445204"></polygon>
            <polygon id="Fill-3" fill="#ED1B2E" points="52.0867811 16.6512933 68.7671011 16.6512933 68.7671011 0.0311445204 52.0867811 0.0311445204"></polygon>
            <polygon id="Fill-4" fill="#ED1B2E" points="0 68.7982456 16.68032 68.7982456 16.68032 52.1780969 0 52.1780969"></polygon>
            <polygon id="Fill-5" fill="#ED1B2E" points="52.0867811 68.7982456 68.7671011 68.7982456 68.7671011 52.1780969 52.0867811 52.1780969"></polygon>
        </g>
    </g>
</svg>